<mxfile host="drawio-plugin" modified="2024-04-16T19:18:49.066Z" agent="5.0 (X11; Linux x86_64) AppleWebKit/537.36 (KHTML, like Gecko) Chrome/111.0.0.0 Safari/537.36" etag="bxvvErK8aYwX2cJhDW4A" version="20.5.3" type="embed"><diagram id="ERxrzM34JgP0kjhDalQf" name="Page-1"><mxGraphModel dx="678" dy="551" grid="1" gridSize="10" guides="1" tooltips="1" connect="1" arrows="1" fold="1" page="0" pageScale="1" pageWidth="827" pageHeight="1169" background="#EEEEEE" math="0" shadow="0"><root><mxCell id="0"/><mxCell id="1" parent="0"/><mxCell id="108" value="" style="html=1;fillColor=#FFFFFF;strokeWidth=2;strokeColor=#000000;" parent="1" vertex="1"><mxGeometry x="400" y="120" width="630" height="720" as="geometry"/></mxCell><mxCell id="130" style="edgeStyle=orthogonalEdgeStyle;rounded=0;orthogonalLoop=1;jettySize=auto;html=1;strokeColor=#000000;strokeWidth=2;fontColor=#000000;endArrow=none;endFill=0;" parent="1" target="129" edge="1"><mxGeometry relative="1" as="geometry"><mxPoint x="360" y="320" as="sourcePoint"/></mxGeometry></mxCell><mxCell id="111" value="Cliente" style="shape=umlActor;verticalLabelPosition=bottom;verticalAlign=top;html=1;strokeColor=#000000;strokeWidth=2;fontColor=#000000;fillColor=#FFFFFF;" parent="1" vertex="1"><mxGeometry x="310" y="295" width="30" height="60" as="geometry"/></mxCell><mxCell id="120" value="Richiesta preventivo" style="ellipse;whiteSpace=wrap;html=1;strokeColor=#000000;strokeWidth=2;fontColor=#000000;fillColor=#FFFFFF;" parent="1" vertex="1"><mxGeometry x="710" y="285" width="140" height="70" as="geometry"/></mxCell><mxCell id="144" style="edgeStyle=orthogonalEdgeStyle;rounded=0;orthogonalLoop=1;jettySize=auto;html=1;strokeColor=#191919;strokeWidth=2;dashed=1;dashPattern=1 1;" edge="1" parent="1" source="129" target="120"><mxGeometry relative="1" as="geometry"/></mxCell><mxCell id="129" value="Consulta catalogo" style="ellipse;whiteSpace=wrap;html=1;strokeColor=#000000;strokeWidth=2;fontColor=#000000;fillColor=#FFFFFF;" parent="1" vertex="1"><mxGeometry x="460" y="285" width="140" height="70" as="geometry"/></mxCell><mxCell id="131" value="Registra" style="ellipse;whiteSpace=wrap;html=1;strokeColor=#000000;strokeWidth=2;fontColor=#000000;fillColor=#FFFFFF;" parent="1" vertex="1"><mxGeometry x="860" y="320" width="140" height="70" as="geometry"/></mxCell><mxCell id="133" value="Dipendente" style="shape=umlActor;verticalLabelPosition=bottom;verticalAlign=top;html=1;strokeColor=#000000;strokeWidth=2;fontColor=#000000;fillColor=#FFFFFF;" parent="1" vertex="1"><mxGeometry x="190" y="470" width="30" height="60" as="geometry"/></mxCell><mxCell id="138" value="Segretario" style="shape=umlActor;verticalLabelPosition=bottom;verticalAlign=top;html=1;strokeColor=#000000;strokeWidth=2;fontColor=#000000;fillColor=#FFFFFF;" vertex="1" parent="1"><mxGeometry x="310" y="540" width="30" height="60" as="geometry"/></mxCell><mxCell id="139" value="Impiegato" style="shape=umlActor;verticalLabelPosition=bottom;verticalAlign=top;html=1;strokeColor=#000000;strokeWidth=2;fontColor=#000000;fillColor=#FFFFFF;" vertex="1" parent="1"><mxGeometry x="310" y="420" width="30" height="60" as="geometry"/></mxCell><mxCell id="142" value="" style="endArrow=classic;html=1;rounded=0;strokeWidth=2;strokeColor=#191919;" edge="1" parent="1" source="139"><mxGeometry width="50" height="50" relative="1" as="geometry"><mxPoint x="320" y="580" as="sourcePoint"/><mxPoint x="230" y="490" as="targetPoint"/></mxGeometry></mxCell><mxCell id="143" value="" style="endArrow=classic;html=1;rounded=0;strokeWidth=2;strokeColor=#191919;" edge="1" parent="1"><mxGeometry width="50" height="50" relative="1" as="geometry"><mxPoint x="310" y="580" as="sourcePoint"/><mxPoint x="230" y="520" as="targetPoint"/></mxGeometry></mxCell><mxCell id="147" style="edgeStyle=orthogonalEdgeStyle;rounded=0;orthogonalLoop=1;jettySize=auto;html=1;strokeColor=#191919;strokeWidth=2;dashed=1;dashPattern=1 1;" edge="1" parent="1" source="146" target="120"><mxGeometry relative="1" as="geometry"/></mxCell><mxCell id="146" value="Login" style="ellipse;whiteSpace=wrap;html=1;strokeColor=#000000;strokeWidth=2;fontColor=#000000;fillColor=#FFFFFF;" vertex="1" parent="1"><mxGeometry x="710" y="405" width="140" height="70" as="geometry"/></mxCell><mxCell id="148" value="&amp;lt;&amp;lt;include&amp;gt;&amp;gt;" style="text;html=1;strokeColor=none;fillColor=none;align=center;verticalAlign=middle;whiteSpace=wrap;rounded=0;fontColor=#3B3B3B;" vertex="1" parent="1"><mxGeometry x="710" y="370" width="60" height="30" as="geometry"/></mxCell><mxCell id="149" style="edgeStyle=orthogonalEdgeStyle;rounded=0;orthogonalLoop=1;jettySize=auto;html=1;exitX=0.5;exitY=1;exitDx=0;exitDy=0;strokeColor=#191919;strokeWidth=2;fontColor=#3B3B3B;endArrow=none;endFill=0;" edge="1" parent="1" source="146" target="146"><mxGeometry relative="1" as="geometry"/></mxCell><mxCell id="153" value="" style="endArrow=classic;html=1;rounded=0;strokeColor=#191919;strokeWidth=2;fontColor=#3B3B3B;entryX=1;entryY=0;entryDx=0;entryDy=0;dashed=1;dashPattern=1 1;" edge="1" parent="1" source="131" target="146"><mxGeometry width="50" height="50" relative="1" as="geometry"><mxPoint x="860" y="390" as="sourcePoint"/><mxPoint x="880" y="250" as="targetPoint"/></mxGeometry></mxCell><mxCell id="154" value="&amp;lt;&amp;lt;extends&amp;gt;&amp;gt;" style="text;html=1;strokeColor=none;fillColor=none;align=center;verticalAlign=middle;whiteSpace=wrap;rounded=0;fontColor=#3B3B3B;" vertex="1" parent="1"><mxGeometry x="850" y="400" width="60" height="30" as="geometry"/></mxCell><mxCell id="155" value="&amp;lt;&amp;lt;extends&amp;gt;&amp;gt;" style="text;html=1;strokeColor=none;fillColor=none;align=center;verticalAlign=middle;whiteSpace=wrap;rounded=0;fontColor=#3B3B3B;" vertex="1" parent="1"><mxGeometry x="620" y="290" width="60" height="30" as="geometry"/></mxCell><mxCell id="156" value="Finalizza preventivo" style="ellipse;whiteSpace=wrap;html=1;strokeColor=#000000;strokeWidth=2;fontColor=#000000;fillColor=#FFFFFF;" vertex="1" parent="1"><mxGeometry x="460" y="405" width="140" height="70" as="geometry"/></mxCell><mxCell id="157" style="edgeStyle=orthogonalEdgeStyle;rounded=0;orthogonalLoop=1;jettySize=auto;html=1;strokeColor=#000000;strokeWidth=2;fontColor=#000000;endArrow=none;endFill=0;entryX=0;entryY=0.5;entryDx=0;entryDy=0;" edge="1" parent="1" target="156"><mxGeometry relative="1" as="geometry"><mxPoint x="360" y="440" as="sourcePoint"/><mxPoint x="470" y="330" as="targetPoint"/></mxGeometry></mxCell><mxCell id="161" value="Gestisci ordine" style="ellipse;whiteSpace=wrap;html=1;strokeColor=#000000;strokeWidth=2;fontColor=#000000;fillColor=#FFFFFF;" vertex="1" parent="1"><mxGeometry x="460" y="500" width="140" height="70" as="geometry"/></mxCell><mxCell id="168" value="" style="endArrow=none;html=1;rounded=0;strokeColor=#191919;strokeWidth=2;fontColor=#3B3B3B;entryX=0;entryY=0.5;entryDx=0;entryDy=0;" edge="1" parent="1" target="161"><mxGeometry width="50" height="50" relative="1" as="geometry"><mxPoint x="360" y="440" as="sourcePoint"/><mxPoint x="500" y="520" as="targetPoint"/></mxGeometry></mxCell><mxCell id="169" value="Visualizza preventivi" style="ellipse;whiteSpace=wrap;html=1;strokeColor=#000000;strokeWidth=2;fontColor=#000000;fillColor=#FFFFFF;" vertex="1" parent="1"><mxGeometry x="460" y="590" width="140" height="70" as="geometry"/></mxCell><mxCell id="173" value="Conferma preventivo" style="ellipse;whiteSpace=wrap;html=1;strokeColor=#000000;strokeWidth=2;fontColor=#000000;fillColor=#FFFFFF;" vertex="1" parent="1"><mxGeometry x="710" y="170" width="140" height="70" as="geometry"/></mxCell><mxCell id="175" value="" style="endArrow=classic;html=1;rounded=0;dashed=1;dashPattern=1 1;strokeColor=#191919;strokeWidth=2;fontColor=#3B3B3B;entryX=0.5;entryY=1;entryDx=0;entryDy=0;exitX=0.5;exitY=0;exitDx=0;exitDy=0;" edge="1" parent="1" source="120" target="173"><mxGeometry width="50" height="50" relative="1" as="geometry"><mxPoint x="760" y="310" as="sourcePoint"/><mxPoint x="810" y="260" as="targetPoint"/></mxGeometry></mxCell><mxCell id="176" value="&amp;lt;&amp;lt;extends&amp;gt;&amp;gt;" style="text;html=1;strokeColor=none;fillColor=none;align=center;verticalAlign=middle;whiteSpace=wrap;rounded=0;fontColor=#3B3B3B;" vertex="1" parent="1"><mxGeometry x="790" y="250" width="60" height="30" as="geometry"/></mxCell><mxCell id="177" value="" style="endArrow=none;html=1;rounded=0;strokeColor=#191919;strokeWidth=2;fontColor=#3B3B3B;entryX=0;entryY=0.5;entryDx=0;entryDy=0;" edge="1" parent="1" target="169"><mxGeometry width="50" height="50" relative="1" as="geometry"><mxPoint x="360" y="570" as="sourcePoint"/><mxPoint x="460" y="570" as="targetPoint"/></mxGeometry></mxCell><mxCell id="180" value="Inserisci modello" style="ellipse;whiteSpace=wrap;html=1;strokeColor=#000000;strokeWidth=2;fontColor=#000000;fillColor=#FFFFFF;" vertex="1" parent="1"><mxGeometry x="460" y="670" width="140" height="70" as="geometry"/></mxCell><mxCell id="181" value="Inserisci optional" style="ellipse;whiteSpace=wrap;html=1;strokeColor=#000000;strokeWidth=2;fontColor=#000000;fillColor=#FFFFFF;" vertex="1" parent="1"><mxGeometry x="710" y="670" width="140" height="70" as="geometry"/></mxCell><mxCell id="182" value="" style="endArrow=none;html=1;rounded=0;strokeColor=#191919;strokeWidth=2;fontColor=#3B3B3B;entryX=0;entryY=0.5;entryDx=0;entryDy=0;" edge="1" parent="1" target="180"><mxGeometry width="50" height="50" relative="1" as="geometry"><mxPoint x="360" y="570" as="sourcePoint"/><mxPoint x="470" y="635" as="targetPoint"/></mxGeometry></mxCell><mxCell id="183" value="" style="endArrow=classic;html=1;rounded=0;strokeColor=#191919;strokeWidth=2;fontColor=#3B3B3B;entryX=1;entryY=0.5;entryDx=0;entryDy=0;exitX=0;exitY=0.5;exitDx=0;exitDy=0;dashed=1;dashPattern=1 1;" edge="1" parent="1" source="181" target="180"><mxGeometry width="50" height="50" relative="1" as="geometry"><mxPoint x="720" y="660" as="sourcePoint"/><mxPoint x="770" y="610" as="targetPoint"/></mxGeometry></mxCell><mxCell id="184" value="&amp;lt;&amp;lt;extends&amp;gt;&amp;gt;" style="text;html=1;strokeColor=none;fillColor=none;align=center;verticalAlign=middle;whiteSpace=wrap;rounded=0;fontColor=#3B3B3B;" vertex="1" parent="1"><mxGeometry x="630" y="680" width="60" height="30" as="geometry"/></mxCell><mxCell id="185" value="&lt;font style=&quot;font-size: 16px;&quot;&gt;Concessionario&lt;/font&gt;" style="text;html=1;strokeColor=none;fillColor=none;align=center;verticalAlign=middle;whiteSpace=wrap;rounded=0;fontColor=#3B3B3B;" vertex="1" parent="1"><mxGeometry x="670" y="120" width="60" height="30" as="geometry"/></mxCell></root></mxGraphModel></diagram></mxfile>